<?xml version="1.0" encoding="UTF-8" standalone="no"?>
<svg
   xmlns:dc="http://purl.org/dc/elements/1.1/"
   xmlns:cc="http://creativecommons.org/ns#"
   xmlns:rdf="http://www.w3.org/1999/02/22-rdf-syntax-ns#"
   xmlns:svg="http://www.w3.org/2000/svg"
   xmlns="http://www.w3.org/2000/svg"
   xmlns:xlink="http://www.w3.org/1999/xlink"
   id="svg650"
   version="1.1"
   viewBox="0 0 154.01491 153.05442"
   height="153.05443mm"
   width="154.01491mm">
  <defs
     id="defs644">
    <clipPath
       id="clipPath1256"
       clipPathUnits="userSpaceOnUse">
      <path
         style="opacity:1;fill:#030303;fill-opacity:1;fill-rule:nonzero;stroke:none;stroke-width:0.26458329;stroke-linecap:square;stroke-linejoin:miter;stroke-miterlimit:4;stroke-dasharray:none;stroke-dashoffset:0;stroke-opacity:1;paint-order:markers stroke fill"
         d="M 29.715592,9.6721401 C 23.127511,9.6894994 16.648598,11.355908 10.869715,14.519388 10.350727,14.768666 10.086762,15.146141 10,15.625265 c 0.232085,13.595387 7.446756,26.113716 19.093922,33.130276 0.194577,0.07331 0.398182,0.113715 0.606684,0.114207 0.175782,-1.14e-4 0.351721,-0.02685 0.519867,-0.07855 C 41.883539,41.82736 49.14533,29.354706 49.443587,15.774092 49.396179,15.369346 49.205557,15.004436 48.909769,14.72506 43.046663,11.433057 36.439644,9.6937412 29.715592,9.6721401 Z"
         id="path1258" />
    </clipPath>
    <clipPath
       id="clipPath2207"
       clipPathUnits="userSpaceOnUse">
      <path
         id="path2209"
         d="M 77.915867,1.3607508 C 52.191466,1.4286924 26.893338,7.9353471 4.3285994,20.287749 2.3021134,21.26111 1.2714125,22.735012 0.93263395,24.605865 1.8388534,77.691616 30.009895,126.57178 75.488439,153.96926 c 0.759762,0.28621 1.554776,0.444 2.368913,0.44592 0.686368,-5.3e-4 1.373359,-0.10465 2.029917,-0.30652 45.540641,-27.19162 73.895671,-75.893425 75.060271,-128.921504 -0.18512,-1.580383 -0.92945,-3.005243 -2.0844,-4.096135 C 129.96953,8.2367888 104.17119,1.4452873 77.915867,1.360946 Z"
         style="opacity:1;fill:#5b5b5b;fill-opacity:0.44943824;fill-rule:nonzero;stroke:none;stroke-width:0.26458329;stroke-linecap:square;stroke-linejoin:miter;stroke-miterlimit:4;stroke-dasharray:none;stroke-dashoffset:0;stroke-opacity:0.30232562;paint-order:markers stroke fill" />
    </clipPath>
  </defs>
  <metadata
     id="metadata647">
    <rdf:RDF>
      <cc:Work
         rdf:about="">
        <dc:format>image/svg+xml</dc:format>
        <dc:type
           rdf:resource="http://purl.org/dc/dcmitype/StillImage" />
        <dc:title></dc:title>
      </cc:Work>
    </rdf:RDF>
  </metadata>
  <g
     transform="translate(-0.93263395,-1.3607508)"
     id="layer1">
    <image
       clip-path="url(#clipPath2207)"
       width="180.34"
       height="190.5"
       preserveAspectRatio="none"
       style="image-rendering:optimizeSpeed"
       xlink:href="file:///home/pablo/Documents/CV/Photo/square.JPG"
       id="image1399"
       x="-13.867352"
       y="0.90042293" />
  </g>
</svg>
